<?xml version="1.0" encoding="UTF-8"?>
<svg viewBox="0 0 20 20" xmlns="http://www.w3.org/2000/svg">
<g transform="translate(-6 -6)" fill="none" fill-rule="evenodd">
<rect x=".5" y=".5" width="31" height="31"/>
<g class="svg-color" transform="translate(6 6)" fill-rule="nonzero">
<path d="m10.087 6.4618c1.8647 0 3.382 1.5299 3.382 3.41 0 1.8801-1.5173 3.41-3.382 3.41-1.8647 0-3.382-1.5299-3.382-3.41 0-1.8893 1.5173-3.41 3.382-3.41zm0-1.5667c-2.7239 0-4.9359 2.2303-4.9359 4.9767 0 2.7464 2.212 4.9767 4.9359 4.9767 2.7239 0 4.9359-2.2303 4.9359-4.9767 0-2.7464-2.212-4.9767-4.9359-4.9767zm5.1187-1.1981c-0.60328 0-1.0969 0.49767-1.0969 1.1059 0 0.60826 0.49359 1.1059 1.0969 1.1059 0.60328 0 1.0969-0.49767 1.0969-1.1059 0-0.60826-0.49359-1.1059-1.0969-1.1059z"/>
<path d="m14.618 1.873c1.9394 0 3.5094 1.57 3.5094 3.5094v9.2352c0 1.9394-1.57 3.5094-3.5094 3.5094h-9.2352c-1.9394 0-3.5094-1.57-3.5094-3.5094v-9.2352c0-1.9394 1.57-3.5094 3.5094-3.5094h9.2352zm0-1.57h-9.2352c-2.7983 0.0092352-5.0701 2.2811-5.0794 5.0794v9.2352c0.0092352 2.7983 2.2811 5.0701 5.0794 5.0794h9.2352c2.7983-0.0092352 5.0701-2.2811 5.0794-5.0794v-9.2352c-0.0092352-2.8075-2.2719-5.0794-5.0794-5.0794z"/>
</g>
</g>
</svg>
