<?xml version="1.0" encoding="UTF-8"?>
<svg viewBox="0 0 32 32" xmlns="http://www.w3.org/2000/svg">
<g fill="#0F0F20">
<path d="m2 1c-0.55228 0-1 0.44772-1 1v28c0 0.55228 0.44772 1 1 1h28c0.55228 0 1-0.44772 1-1v-28c0-0.55228-0.44772-1-1-1h-28zm0-1h28c1.1046-2.0291e-16 2 0.89543 2 2v28c0 1.1046-0.89543 2-2 2h-28c-1.1046 0-2-0.89543-2-2v-28c-1.3527e-16 -1.1046 0.89543-2 2-2z"/>
<path d="m22.44 12.592h-1.68v-0.48c0-2.112-1.68-3.672-3.648-3.672h-2.784c-1.968 0-3.648 1.56-3.648 3.672v6.96c0 2.112 1.68 3.672 3.648 3.672h2.784c1.968 0 3.648-1.56 3.648-3.672v-1.8h-3.6v-1.44h5.28v3.24c0 3.072-2.16 5.112-5.328 5.112h-2.784c-3.168 0-5.328-2.04-5.328-5.112v-6.96c0-3.072 2.16-5.112 5.328-5.112h2.784c3.168 0 5.328 2.04 5.328 5.112v0.48z"/>
</g>
</svg>
