<?xml version="1.0" encoding="UTF-8"?>
<svg viewBox="0 0 20 20" xmlns="http://www.w3.org/2000/svg">
<g transform="translate(-6 -6)" fill="none" fill-rule="evenodd">
<rect x=".5" y=".5" width="31" height="31"/>
<g class="svg-color" transform="translate(6 6)" fill-rule="nonzero">
<polygon points="4.522 19.418 4.522 6.78 0.316 6.78 0.316 19.418"/>
<path d="m4.1402 4.4403c0.43697-0.41911 0.65523-0.93803 0.65529-1.5569-0.012055-0.63124-0.23063-1.1534-0.65548-1.5662-0.42497-0.41273-0.9895-0.61919-1.6936-0.61919-0.70402 0-1.2775 0.20646-1.7208 0.61919-0.44296 0.41286-0.66467 0.93497-0.66467 1.5662 0 0.61913 0.21545 1.1381 0.64662 1.5569 0.4311 0.41885 0.99237 0.62831 1.6843 0.62831h0.018369c0.71633 0 1.293-0.20946 1.73-0.62831zm15.515 14.977v-7.2481c0-1.8691-0.44303-3.2836-1.3293-4.2427-0.88618-0.95889-2.0578-1.4385-3.5146-1.4385-1.6292 0-2.8851 0.69286-3.7695 2.0757v-1.7842h-4.2065c0.036419 0.80128 0.036419 5.014 0 12.638l4.2065-6.37e-5v-7.0654c0-0.4612 0.042351-0.80103 0.1275-1.0193 0.18184-0.42523 0.45489-0.78642 0.8194-1.0837 0.36406-0.29748 0.81347-0.44615 1.3476-0.44615 1.4083 0 2.1122 0.95315 2.1122 2.8589v6.7557h4.2068z"/>
</g>
</g>
</svg>
