<?xml version="1.0" encoding="UTF-8"?>
<svg viewBox="0 0 32 32" xmlns="http://www.w3.org/2000/svg">
<g fill="#0F0F20">
<path d="m2 1c-0.55228 0-1 0.44772-1 1v28c0 0.55228 0.44772 1 1 1h28c0.55228 0 1-0.44772 1-1v-28c0-0.55228-0.44772-1-1-1h-28zm0-1h28c1.1046-2.0291e-16 2 0.89543 2 2v28c0 1.1046-0.89543 2-2 2h-28c-1.1046 0-2-0.89543-2-2v-28c-1.3527e-16 -1.1046 0.89543-2 2-2z"/>
<polygon points="21.68 8 23.552 8 23.552 24.8 21.872 24.8 21.872 10.52 16.592 18.512 14.96 18.512 9.68 10.52 9.68 24.8 8 24.8 8 8 9.872 8 15.776 16.952"/>
</g>
</svg>
