<?xml version="1.0" encoding="UTF-8"?>
<svg viewBox="0 0 32 86" xmlns="http://www.w3.org/2000/svg">
<path d="m13 27l7 5-7 5v-10zm-11-4c-0.55228 0-1 0.44772-1 1v16c0 0.55228 0.44772 1 1 1h28c0.55228 0 1-0.44772 1-1v-16c0-0.55228-0.44772-1-1-1h-28zm0-1h28c1.1046 0 2 0.89543 2 2v16c0 1.1046-0.89543 2-2 2h-28c-1.1046 0-2-0.89543-2-2v-16c-1.3527e-16 -1.1046 0.89543-2 2-2zm17 49v10l-7-5 7-5zm-17-4c-0.55228 0-1 0.44772-1 1v16c0 0.55228 0.44772 1 1 1h28c0.55228 0 1-0.44772 1-1v-16c0-0.55228-0.44772-1-1-1h-28zm0-1h28c1.1046 0 2 0.89543 2 2v16c0 1.1046-0.89543 2-2 2h-28c-1.1046 0-2-0.89543-2-2v-16c-1.3527e-16 -1.1046 0.89543-2 2-2zm9-53l5-7 5 7h-10zm-9-12c-0.55228 0-1 0.44772-1 1v16c0 0.55228 0.44772 1 1 1h28c0.55228 0 1-0.44772 1-1v-16c0-0.55228-0.44772-1-1-1h-28zm0-1h28c1.1046-2.0291e-16 2 0.89543 2 2v16c0 1.1046-0.89543 2-2 2h-28c-1.1046 0-2-0.89543-2-2v-16c-1.3527e-16 -1.1046 0.89543-2 2-2zm9 51h10l-5 7-5-7zm-9-6c-0.55228 0-1 0.44772-1 1v16c0 0.55228 0.44772 1 1 1h28c0.55228 0 1-0.44772 1-1v-16c0-0.55228-0.44772-1-1-1h-28zm0-1h28c1.1046 0 2 0.89543 2 2v16c0 1.1046-0.89543 2-2 2h-28c-1.1046 0-2-0.89543-2-2v-16c-1.3527e-16 -1.1046 0.89543-2 2-2z" fill="#0F0F20"/>
</svg>
