<?xml version="1.0" encoding="UTF-8"?>
<svg viewBox="0 0 32 32" xmlns="http://www.w3.org/2000/svg">
<g fill="#0F0F20">
<path d="m8.78 12c1.82 0 2.94 1.092 2.94 2.912v1.092h-5.74v0.42c0 1.26 0.98 2.184 2.24 2.184h0.42c1.078 0 1.82-0.504 2.1-1.624h0.98c-0.21 1.47-1.26 2.464-2.94 2.464h-0.7c-1.82 0-3.08-1.204-3.08-3.024v-1.512c0-1.82 1.26-2.912 3.08-2.912h0.7zm-2.8 3.164h4.76v-0.252c0-1.26-0.854-2.072-2.1-2.072h-0.42c-1.246 0-2.24 0.812-2.24 2.072v0.252zm10.08 4.284c-1.82 0-2.828-0.784-3.08-2.282l0.98-0.14c0.238 0.91 0.882 1.582 2.1 1.582 1.596 0 2.38-1.064 1.4-1.764s-2.52-0.84-3.5-1.54c-1.12-0.798-0.56-3.304 1.96-3.304 1.96 0 2.562 0.882 2.842 1.722l-0.98 0.14c-0.28-0.7-0.882-1.022-1.862-1.022-1.4 0-1.988 1.246-1.26 1.764 0.98 0.7 2.38 0.756 3.5 1.54 1.33 0.938 1.12 3.304-2.1 3.304zm7.21 0c-1.82 0-3.08-1.148-3.08-2.968v-1.512c0-1.82 1.26-2.968 3.08-2.968h0.7c1.68 0 2.73 0.994 2.94 2.464h-0.98c-0.28-1.12-0.98-1.638-2.1-1.638h-0.42c-1.26 0-2.24 0.882-2.24 2.142v1.512c0 1.26 0.98 2.128 2.24 2.128h0.42c1.12 0 1.82-0.504 2.1-1.624h0.98c-0.21 1.47-1.232 2.464-2.94 2.464h-0.7z"/>
<path d="m2 1c-0.55228 0-1 0.44772-1 1v28c0 0.55228 0.44772 1 1 1h28c0.55228 0 1-0.44772 1-1v-28c0-0.55228-0.44772-1-1-1h-28zm0-1h28c1.1046-2.0291e-16 2 0.89543 2 2v28c0 1.1046-0.89543 2-2 2h-28c-1.1046 0-2-0.89543-2-2v-28c-1.3527e-16 -1.1046 0.89543-2 2-2z"/>
</g>
</svg>
