<?xml version="1.0" encoding="UTF-8"?>
<svg viewBox="0 0 32 32" xmlns="http://www.w3.org/2000/svg">
<g fill="#0F0F20">
<path d="m2 1c-0.55228 0-1 0.44772-1 1v28c0 0.55228 0.44772 1 1 1h28c0.55228 0 1-0.44772 1-1v-28c0-0.55228-0.44772-1-1-1h-28zm0-1h28c1.1046-2.0291e-16 2 0.89543 2 2v28c0 1.1046-0.89543 2-2 2h-28c-1.1046 0-2-0.89543-2-2v-28c-1.3527e-16 -1.1046 0.89543-2 2-2z"/>
<path d="m16.032 24.352c-4.08 0-6.432-1.92-7.032-5.424l1.68-0.24c0.696 2.688 2.304 4.248 5.352 4.224 3.936-0.024 6.024-3.168 3.456-5.04-2.112-1.536-5.592-1.608-7.992-3.408-2.592-1.944-1.512-7.464 4.344-7.464 4.416 0 5.712 2.184 6.552 4.08l-1.68 0.24c-0.888-1.944-2.496-2.88-4.872-2.88-3.744 0-4.944 3.576-3 4.896 2.016 1.368 5.568 1.608 8.016 3.36 2.952 2.112 2.208 7.656-4.824 7.656z"/>
</g>
</svg>
