<?xml version="1.0" encoding="UTF-8"?>
<svg viewBox="0 0 32 64" xmlns="http://www.w3.org/2000/svg">
<g fill="none" fill-rule="evenodd">
<path d="m30 0.5l-28-3.192e-6c-0.82843 1.322e-6 -1.5 0.67157-1.5 1.5l3.8307e-5 28c1.322e-6 0.82842 0.67157 1.5 1.5 1.5l8.754 3.1e-6c1.3807 0 2.5 1.1193 2.5 2.5v28c0 0.82842 0.67157 1.5 1.5 1.5h15.246c0.82843 0 1.5-0.67157 1.5-1.5v-60c0-0.82842-0.67157-1.5-1.5-1.5z" stroke="#0F0F20"/>
<path d="m23.018 14c0.54217 0 0.98168 0.45989 0.98168 1.0272v4.1088c0 0.5673-0.43951 1.0272-0.98168 1.0272h-10.132l2.9727 3.1105-0.69415 0.72633-4.1649-4.358 4.1649-4.358 0.69415 0.72633-2.9871 3.1256h10.146v-4.1088h-2.945v-1.0272h2.945z" fill="#0F0F20"/>
</g>
</svg>
