<?xml version="1.0" encoding="utf-8"?>
<!-- Generator: Adobe Illustrator 21.1.0, SVG Export Plug-In . SVG Version: 6.00 Build 0)  -->
<svg version="1.1" id="Layer_2" xmlns="http://www.w3.org/2000/svg" xmlns:xlink="http://www.w3.org/1999/xlink" x="0px" y="0px"
	 viewBox="0 0 600 613" style="enable-background:new 0 0 600 613;" xml:space="preserve">
<style type="text/css">
	.st0{fill:#E4E9EB;}
	.st1{fill:#F52A3B;}
	.st2{fill:#FFFFFF;}
</style>
<title>Instagram</title>
<circle class="st0" cx="299.9" cy="304.2" r="287.5"/>
<ellipse class="st1" cx="299.9" cy="304.2" rx="196.2" ry="197"/>
<path class="st2" d="M300.9,267.2c20.4,0,37,16.6,37,37s-16.6,37-37,37s-37-16.6-37-37l0,0C263.9,283.7,280.5,267.2,300.9,267.2
	 M300.9,250.2c-29.8,0-54,24.2-54,54s24.2,54,54,54s54-24.2,54-54S330.7,250.2,300.9,250.2z M356.9,237.2c-6.6,0-12,5.4-12,12
	s5.4,12,12,12s12-5.4,12-12S363.5,237.2,356.9,237.2z"/>
<path class="st2" d="M349.9,216.2c21,0,38,17,38,38v100c0,21-17,38-38,38l0,0h-100c-21,0-38-17-38-38l0,0v-100c0-21,17-38,38-38
	H349.9 M349.9,199.2h-100c-30.3,0.1-54.9,24.7-55,55v100c0.1,30.3,24.7,54.9,55,55h100c30.3-0.1,54.9-24.7,55-55v-100
	C404.8,223.8,380.3,199.2,349.9,199.2z"/>
</svg>
