<svg id="Layer_2" data-name="Layer 2" xmlns="http://www.w3.org/2000/svg" viewBox="0 0 600 613"><defs><style>.cls-1{fill:#e4e9eb;}.cls-2{fill:#f52a3b;}.cls-3{fill:#fff;}</style></defs><title>Instagram</title><circle class="cls-1" cx="299.92" cy="304.16" r="287.5"/><ellipse class="cls-2" cx="299.92" cy="304.16" rx="196.21" ry="196.98"/><path class="cls-3" d="M300.92 267.16a37 37 0 1 1-37 37 37 37 0 0 1 37-37m0-17a54 54 0 1 0 54 54 54 54 0 0 0-54-54zM356.92 237.16a12 12 0 1 0 12 12 12 12 0 0 0-12-12z"/><path class="cls-3" d="M349.92 216.16a38 38 0 0 1 38 38v100a38 38 0 0 1-38 38h-100a38 38 0 0 1-38-38v-100a38 38 0 0 1 38-38h100m0-17h-100a55.16 55.16 0 0 0-55 55v100a55.16 55.16 0 0 0 55 55h100a55.16 55.16 0 0 0 55-55v-100a55.16 55.16 0 0 0-55-55z"/></svg>