<?xml version="1.0" encoding="utf-8"?>
<!-- Generator: Adobe Illustrator 21.0.2, SVG Export Plug-In . SVG Version: 6.00 Build 0)  -->
<svg version="1.1" id="Layer_2" xmlns="http://www.w3.org/2000/svg" xmlns:xlink="http://www.w3.org/1999/xlink" x="0px" y="0px"
	 viewBox="0 0 600 613" style="enable-background:new 0 0 600 613;" xml:space="preserve">
<style type="text/css">
	.st0{fill:#E4E9EB;}
	.st1{fill:#001A52;}
	.st2{fill:#FFFFFF;}
</style>
<g>
	<circle class="st0" cx="297.8" cy="304" r="287.5"/>
	<ellipse class="st1" cx="297.8" cy="304" rx="196.2" ry="197"/>
	<g>
		<path class="st2" d="M234.8,375.7h-30.6c-3.9,0-7-3.1-7-7v-95c0-3.9,3.1-7,7-7h30.6c3.9,0,7,3.1,7,7v95
			C241.8,372.6,238.7,375.7,234.8,375.7z"/>
		<path class="st2" d="M393.2,299.8v14.9c0,3.7-3,6.7-6.7,6.7h-11.1v1.8h9.4c2.6,0,4.7,2.1,4.7,4.7v17.7c0,2.6-2.1,4.7-4.7,4.7h-9.4
			v2.2c0.1,0,0.2,0,0.3,0h6c1.7,0,3,1.3,3,3v12.5c0,4.4-3.5,7.9-7.9,7.9h-6.7c-0.1,0-0.2,0-0.3,0v0h-99.7c-7.1,0-12.9-5.8-12.9-12.9
			v-81.2c0-6.4,4.1-11.9,9.8-14c2.8-1.5,6-3,7.6-4.8c19.8-23.9,42.8-47.9,42.8-66.4c6-11.9,20.8-8.9,20.8,5.9
			c0,14.9-14.9,53.6-17.8,62.5c-0.2,0.7-0.3,0.9-0.4,1.5h39.8l0,0h21.6c4.5,0,8.1,3.6,8.1,8.1v13.9c0,2.6-2.1,4.7-4.7,4.7h-9.4v2
			h13.1C391.1,295.1,393.2,297.2,393.2,299.8z"/>
	</g>
</g>
</svg>
