<?xml version="1.0" encoding="utf-8"?>
<!-- Generator: Adobe Illustrator 21.0.2, SVG Export Plug-In . SVG Version: 6.00 Build 0)  -->
<svg version="1.1" id="Layer_1" xmlns="http://www.w3.org/2000/svg" xmlns:xlink="http://www.w3.org/1999/xlink" x="0px" y="0px"
	 viewBox="0 0 600 613" style="enable-background:new 0 0 600 613;" xml:space="preserve">
<style type="text/css">
	.st0{fill:#E4E9EB;}
	.st1{fill:#F52A3B;}
	.st2{fill:#FFFFFF;}
</style>
<circle class="st0" cx="297.8" cy="304.6" r="287.5"/>
<ellipse class="st1" cx="297.8" cy="304.6" rx="196.2" ry="197"/>
<g>
	<path class="st2" d="M297.8,355.4c-28.1,0-50.9-22.8-50.9-50.9s22.8-50.9,50.9-50.9s50.9,22.8,50.9,50.9S325.8,355.4,297.8,355.4z
		 M297.8,270.7c-18.7,0-33.9,15.2-33.9,33.9s15.2,33.9,33.9,33.9s33.9-15.2,33.9-33.9S316.5,270.7,297.8,270.7z"/>
</g>
<g>
	<g>
		<path class="st2" d="M425.3,302.4c-2-4.8-4.4-9.5-7-14c-24.7-43.1-70.8-69.9-120.4-69.9c-49.9,0-96.2,27.1-120.8,70.7
			c-2.5,4.5-4.9,9.2-6.9,14.1l-0.2,0.6c-0.3,0.8-0.3,1.6,0,2.4l0.3,0.6c2,4.8,4.4,9.5,7,14c24.7,43.1,70.8,69.9,120.3,69.9
			c49.9,0,96.2-27.1,120.8-70.7c2.5-4.5,4.9-9.2,6.9-14l0.3-0.6c0.3-0.7,0.3-1.6,0-2.3L425.3,302.4z M297.6,370.5
			c-22.8,0-44.9-6.5-64-18.8c-17.6-11.3-31.8-27-41.3-45.5c-0.4-0.9-0.4-1.9,0-2.7c20.1-39.6,61.2-64.9,105.7-64.9
			c22.8,0,44.9,6.5,64,18.8c17.6,11.3,31.8,27,41.3,45.5c0.4,0.9,0.4,1.9,0,2.7C383.2,345.2,342.1,370.5,297.6,370.5z"/>
	</g>
</g>
</svg>
