<svg xmlns="http://www.w3.org/2000/svg" width="20" height="20" viewBox="0 0 20 20">
  <g fill="none" fill-rule="evenodd" transform="translate(-6 -6)">
    <rect width="31" height="31" x=".5" y=".5"/>
    <g fill="#FFFFFF" fill-rule="nonzero" transform="translate(6 6)">
      <path d="M10.0874317,6.46180816 C11.9521113,6.46180816 13.4694486,7.99168545 13.4694486,9.87177561 C13.4694486,11.7518658 11.9521113,13.2817431 10.0874317,13.2817431 C8.22275211,13.2817431 6.7054148,11.7518658 6.7054148,9.87177561 C6.7054148,7.98246932 8.22275211,6.46180816 10.0874317,6.46180816 Z M10.0874317,4.89506637 C7.36353701,4.89506637 5.15151515,7.1253694 5.15151515,9.87177561 C5.15151515,12.6181818 7.36353701,14.8484848 10.0874317,14.8484848 C12.8113264,14.8484848 15.0233482,12.6181818 15.0233482,9.87177561 C15.0233482,7.1253694 12.8113264,4.89506637 10.0874317,4.89506637 Z M15.20616,3.6969697 C14.6028813,3.6969697 14.1092896,4.19464062 14.1092896,4.80290508 C14.1092896,5.41116955 14.6028813,5.90884047 15.20616,5.90884047 C15.8094386,5.90884047 16.3030303,5.41116955 16.3030303,4.80290508 C16.3030303,4.19464062 15.8094386,3.6969697 15.20616,3.6969697 Z"/>
      <path d="M14.6176046,1.87301587 C16.5569986,1.87301587 18.1269841,3.44300144 18.1269841,5.38239538 L18.1269841,14.6176046 C18.1269841,16.5569986 16.5569986,18.1269841 14.6176046,18.1269841 L5.38239538,18.1269841 C3.44300144,18.1269841 1.87301587,16.5569986 1.87301587,14.6176046 L1.87301587,5.38239538 C1.87301587,3.44300144 3.44300144,1.87301587 5.38239538,1.87301587 L14.6176046,1.87301587 Z M14.6176046,0.303030303 L5.38239538,0.303030303 C2.58412698,0.312265512 0.312265512,2.58412698 0.303030303,5.38239538 L0.303030303,14.6176046 C0.312265512,17.415873 2.58412698,19.6877345 5.38239538,19.6969697 L14.6176046,19.6969697 C17.415873,19.6877345 19.6877345,17.415873 19.6969697,14.6176046 L19.6969697,5.38239538 C19.6877345,2.57489177 17.4251082,0.303030303 14.6176046,0.303030303 Z"/>
    </g>
  </g>
</svg>
