<svg xmlns="http://www.w3.org/2000/svg" width="20" height="20" viewBox="0 0 20 20">
  <g fill="none" fill-rule="evenodd" transform="translate(-6 -6)">
    <rect width="31" height="31" x=".5" y=".5"/>
    <g fill="#FFFFFF" fill-rule="nonzero" transform="translate(6 6)">
      <polygon points="4.522 19.418 4.522 6.78 .316 6.78 .316 19.418"/>
      <path d="M4.1401549 4.4403098C4.5771207 4.0212027 4.7953804 3.5022779 4.7954442 2.88340774 4.7833895 2.25216401 4.5648109 1.73005011 4.1399636 1.31719362 3.71498861.90446469 3.15046014.69800456 2.44637813.69800456 1.74235991.69800456 1.16883827.90446469.72555809 1.31719362.28259681 1.73005011.06089294 2.25216401.06089294 2.88340774.06089294 3.50253303.27634624 4.0214579.70750797 4.4403098 1.13860592 4.8591617 1.69988155 5.0686196 2.39178132 5.0686196L2.41015034 5.0686196C3.12647836 5.0686196 3.70318907 4.8591617 4.1401549 4.4403098zM19.6550251 19.4177585L19.6550251 12.1696492C19.6550251 10.3005376 19.212 8.8860592 18.3257585 7.9269795 17.4395809 6.9680911 16.267918 6.4884556 14.8111526 6.4884556 13.1819863 6.4884556 11.9260683 7.1813121 11.0416128 8.5641549L11.0416128 6.7799362 6.8351071 6.7799362C6.8715262 7.581221 6.8715262 11.7939772 6.8351071 19.4177585L11.0416128 19.4176948 11.0416128 12.3523189C11.0416128 11.8911162 11.0839636 11.5512893 11.1691116 11.3330296 11.3509522 10.9077995 11.624 10.5466059 11.9885103 10.2493212 12.352574 9.9518451 12.8019772 9.8031708 13.336082 9.8031708 14.7443736 9.8031708 15.4482642 10.7563189 15.4482642 12.662041L15.4482642 19.4177585 19.6550251 19.4177585z"/>
    </g>
  </g>
</svg>
