<?xml version="1.0" encoding="utf-8"?>
<!-- Generator: Adobe Illustrator 21.1.0, SVG Export Plug-In . SVG Version: 6.00 Build 0)  -->
<svg version="1.1" id="Layer_1" xmlns="http://www.w3.org/2000/svg" xmlns:xlink="http://www.w3.org/1999/xlink" x="0px" y="0px"
	 viewBox="0 0 600 613" style="enable-background:new 0 0 600 613;" xml:space="preserve">
<style type="text/css">
	.st0{fill:#E4E9EB;}
	.st1{fill:#001A52;}
	.st2{fill:#F52A3B;}
	.st3{fill:#FFFFFF;}
</style>
<title>talk</title>
<g id="Layer_3">
	<path class="st0" d="M264.2,307.6v59.6c0.2,5.4-4.1,9.9-9.5,10.1c-5.4,0.2-9.9-4.1-10.1-9.5c0-0.2,0-0.4,0-0.6v-59.6
		c-0.2-5.4,4.1-9.9,9.5-10.1c5.4-0.2,9.9,4.1,10.1,9.5C264.2,307.2,264.2,307.4,264.2,307.6z M332.7,222.8c3.4,4.2,2.9,10.4-1.3,14
		l-50.3,42.6c-4.1,3.5-10.2,3-13.7-1.1c0-0.1-0.1-0.1-0.1-0.2c-3.5-4.3-2.9-10.5,1.3-14.1l50.3-42.6c4.1-3.5,10.2-3,13.6,1.1
		C332.6,222.6,332.6,222.7,332.7,222.8L332.7,222.8z"/>
	<path class="st0" d="M299.9,17.6c-159.1,0-288.2,129-288.2,288.2s129,288.2,288.2,288.2S588,464.9,588,305.7S459,17.6,299.9,17.6z
		 M254.9,435.9c-25.5,0-50.5-6.7-72.6-19.4c-0.7-0.4-1.5-0.5-2.2-0.3l-64.4,18.7c-2.1,1.1-4.8,0.3-5.9-1.9c0-0.1-0.1-0.1-0.1-0.2
		c-0.7-1.5-0.5-3.2,0.4-4.5l35.2-37.1c1.1-1.2,1.1-3,0-4.1c-23.5-25.5-37.9-58.5-37.9-92.3c0-78,66-141.2,147.5-141.2
		c16.6,0,33.1,2.7,48.8,7.9c57.4,19.3,98.6,71.7,98.6,133.2c0,56.8-35,105.7-85.5,128.1C297.3,431.5,276.2,435.9,254.9,435.9
		L254.9,435.9z"/>
	<path class="st1" d="M264.2,307.6v59.6c0.2,5.4-4.1,9.9-9.5,10.1c-5.4,0.2-9.9-4.1-10.1-9.5c0-0.2,0-0.4,0-0.6v-59.6
		c-0.2-5.4,4.1-9.9,9.5-10.1c5.4-0.2,9.9,4.1,10.1,9.5C264.2,307.2,264.2,307.4,264.2,307.6z M331.4,236.8l-50.3,42.6
		c-4.1,3.5-10.2,3-13.7-1.1c0-0.1-0.1-0.1-0.1-0.2c-3.5-4.3-2.9-10.5,1.3-14.1l50.3-42.6c4.1-3.5,10.2-3,13.6,1.1
		c0.1,0.1,0.1,0.1,0.2,0.2C336.2,227,335.6,233.3,331.4,236.8L331.4,236.8z"/>
	<path class="st1" d="M493.3,418.8c0.5,0.7,0.8,1.6,0.8,2.5c0,0.6-0.1,1.3-0.4,1.9c-1.1,2.2-3.7,3.1-5.9,2l-64.3-17.9
		c-0.7-0.2-1.5-0.1-2.2,0.2c-22.2,12.2-47.1,18.6-72.4,18.6c-10.7,0-21.4-1.1-31.9-3.2c50.5-22.4,85.5-71.4,85.5-128.1
		c0-61.6-41.2-113.9-98.6-133.2c14.6-4.3,29.8-6.5,45.1-6.5c81.3,0,147.2,60.7,147.2,135.5c0,32.5-14.3,64.1-37.8,88.6
		c-1.1,1.1-1.1,2.9,0,4L493.3,418.8z"/>
	<path class="st2" d="M303.8,161.5c-15.7-5.3-32.2-8-48.9-7.9c-81.4,0-147.5,63.2-147.5,141.2c0,33.9,14.3,66.8,37.9,92.3
		c1.1,1.2,1.1,3,0,4.1l-35.2,37.1c-0.9,1.3-1.1,3.1-0.4,4.5c1,2.2,3.6,3.2,5.8,2.2c0.1,0,0.1-0.1,0.2-0.1l64.4-18.7
		c0.7-0.2,1.5-0.1,2.2,0.3c22.1,12.7,47.1,19.4,72.6,19.4c21.3,0.1,42.5-4.4,62-13c50.5-22.4,85.5-71.4,85.5-128.1
		C402.4,233.2,361.2,180.8,303.8,161.5L303.8,161.5z M234.9,281.7c-2.3,0-4.5-0.8-6.3-2.3l-23.2-19.7l-27.1-22.9
		c-4.1-3.6-4.7-9.8-1.3-14c3.4-4.2,9.5-4.8,13.6-1.4c0.1,0,0.1,0.1,0.2,0.1l21.4,18.2l28.9,24.4c4.2,3.6,4.7,9.8,1.3,14.1
		C240.6,280.4,237.9,281.7,234.9,281.7L234.9,281.7z M264.2,367.2c0.2,5.4-4.1,9.9-9.5,10.1c-5.4,0.2-9.9-4.1-10.1-9.5
		c0-0.2,0-0.4,0-0.6v-59.6c-0.2-5.4,4.1-9.9,9.5-10.1c5.4-0.2,9.9,4.1,10.1,9.5c0,0.2,0,0.4,0,0.6V367.2z M331.4,236.8l-50.3,42.6
		c-4.1,3.5-10.2,3-13.7-1.1c0-0.1-0.1-0.1-0.1-0.2c-3.5-4.3-2.9-10.5,1.3-14.1l50.3-42.6c4.1-3.5,10.2-3,13.6,1.1
		c0.1,0.1,0.1,0.1,0.2,0.2C336.2,227,335.6,233.3,331.4,236.8L331.4,236.8z"/>
	<path class="st2" d="M264.2,307.6v59.6c0.2,5.4-4.1,9.9-9.5,10.1c-5.4,0.2-9.9-4.1-10.1-9.5c0-0.2,0-0.4,0-0.6v-59.6
		c-0.2-5.4,4.1-9.9,9.5-10.1c5.4-0.2,9.9,4.1,10.1,9.5C264.2,307.2,264.2,307.4,264.2,307.6z M331.4,236.8l-50.3,42.6
		c-4.1,3.5-10.2,3-13.7-1.1c0-0.1-0.1-0.1-0.1-0.2c-3.5-4.3-2.9-10.5,1.3-14.1l50.3-42.6c4.1-3.5,10.2-3,13.6,1.1
		c0.1,0.1,0.1,0.1,0.2,0.2C336.2,227,335.6,233.3,331.4,236.8L331.4,236.8z"/>
	<path class="st3" d="M264.2,307.6v59.6c0.2,5.4-4.1,9.9-9.5,10.1c-5.4,0.2-9.9-4.1-10.1-9.5c0-0.2,0-0.4,0-0.6v-59.6
		c-0.2-5.4,4.1-9.9,9.5-10.1c5.4-0.2,9.9,4.1,10.1,9.5C264.2,307.2,264.2,307.4,264.2,307.6z M331.4,236.8l-50.3,42.6
		c-4.1,3.5-10.2,3-13.7-1.1c0-0.1-0.1-0.1-0.1-0.2c-3.5-4.3-2.9-10.5,1.3-14.1l50.3-42.6c4.1-3.5,10.2-3,13.6,1.1
		c0.1,0.1,0.1,0.1,0.2,0.2C336.2,227,335.6,233.3,331.4,236.8L331.4,236.8z M242.5,278.1c-3.4,4.2-9.5,4.8-13.7,1.4
		c0,0-0.1-0.1-0.1-0.1l-23.2-19.7l-27.1-22.9c-4.1-3.6-4.7-9.8-1.3-14c3.4-4.2,9.5-4.8,13.6-1.4c0.1,0,0.1,0.1,0.2,0.1l21.4,18.2
		l28.9,24.4C245.4,267.7,245.9,273.9,242.5,278.1L242.5,278.1z"/>
</g>
</svg>
