<?xml version="1.0" encoding="utf-8"?>
<!-- Generator: Adobe Illustrator 21.0.2, SVG Export Plug-In . SVG Version: 6.00 Build 0)  -->
<svg version="1.1" id="Layer_3" xmlns="http://www.w3.org/2000/svg" xmlns:xlink="http://www.w3.org/1999/xlink" x="0px" y="0px"
	 viewBox="0 0 600 613" style="enable-background:new 0 0 600 613;" xml:space="preserve">
<style type="text/css">
	.st0{fill:#F52A3B;}
</style>
<path class="st0" d="M299.6,501.5c-11.1,0-20.1-9-20.1-20.1V361c0-11.1,9-20.1,20.1-20.1c11.1,0,20.1,9,20.1,20.1v120.3
	C319.7,492.5,310.7,501.5,299.6,501.5"/>
<path class="st0" d="M341.6,308.8c-5.8,0-11.5-2.5-15.5-7.2c-7.1-8.6-6-21.2,2.6-28.4L432,187.3c8.5-7.1,21.2-6,28.4,2.6
	c7.1,8.5,6,21.2-2.6,28.3l-103.2,85.9C350.7,307.3,346.2,308.8,341.6,308.8"/>
<path class="st0" d="M259.6,308.8c-4.5,0-9.1-1.5-12.9-4.7l-103.3-85.9c-8.5-7.1-9.7-19.8-2.6-28.3c7.1-8.5,19.8-9.7,28.4-2.6
	l103.3,85.9c8.5,7.1,9.7,19.8,2.6,28.4C271.1,306.3,265.3,308.8,259.6,308.8"/>
</svg>
