<svg xmlns="http://www.w3.org/2000/svg" width="16" height="16" viewBox="0 0 16 16">
  <g fill="none" fill-rule="evenodd">
    <polygon fill="#CCCCCC" points="0 16 13 16 13 0 0 0"/>
    <polygon fill="#F2F2F2" points="1 15 12 15 12 1 1 1"/>
    <polygon fill="#CCCCCC" points="5 4 9.999 4 9.999 3 5 3"/>
    <polygon fill="#CCCCCC" points="3 6 10 6 10 5 3 5"/>
    <polygon fill="#292929" points="3 4 4 4 4 3 3 3"/>
    <polygon fill="#FF6665" points="1 13 5 9 8 11 12 7 12 9 8 13 5 11 1 15"/>
    <polygon fill="#757575" points="11 13 13.001 15 15 13 13 10.999"/>
    <polygon fill="#292929" points="13 15 14.001 16 16 14 15.001 13"/>
    <path fill="#757575" d="M10,6 C7.791,6 6,7.791 6,10 C6,12.209 7.791,14 10,14 C12.209,14 14,12.209 14,10 C14,7.791 12.209,6 10,6 M10,8 C11.104,8 12,8.897 12,10 C12,11.103 11.104,12 10,12 C8.896,12 8,11.103 8,10 C8,8.897 8.896,8 10,8"/>
  </g>
</svg>
