<svg xmlns="http://www.w3.org/2000/svg" width="16" height="16" viewBox="0 0 16 16">
  <g fill="none" fill-rule="evenodd">
    <polygon fill="#CCCCCC" points="8 9 15 9 15 4 8 4"/>
    <polygon fill="#F2F2F2" points="8 4 11.5 7.5 15 4"/>
    <polygon fill="#292929" points="11 15 16 15 16 10 11 10"/>
    <path fill="#F2F2F2" d="M13.9999,14 L15,14 L15,15 L13.9999,15 L12.9999,15 L12.9999,12.503 C12.9999,12.225 13.2259,12 13.5029,12 L13.9999,12 L13.9999,14 Z M14,13 L14,12 L15,12 L15,13 L14,13 Z"/>
    <polygon fill="#F2F2F2" points="1 7 7 7 7 0 1 0"/>
    <polygon fill="#CCCCCC" points="2 2 4 2 4 1 2 1"/>
    <polygon fill="#CCCCCC" points="2 4 6.001 4 6.001 3 2 3"/>
    <polygon fill="#CCCCCC" points="2 6 6.001 6 6.001 5 2 5"/>
    <polygon fill="#CCCCCC" points="5 2 6 2 6 1 5 1"/>
    <polygon fill="#58ED9F" points="0 15 10 15 10 10 0 10"/>
    <polygon fill="#F2F2F2" points="0 16 10 16 10 15 0 15"/>
    <polygon fill="#292929" points="0 10 10 10 10 8 0 8"/>
    <polygon fill="#F2F2F2" points="3 12 7.001 12 7.001 10.999 3 10.999"/>
    <polygon fill="#F2F2F2" points="3 14 7.001 14 7.001 13 3 13"/>
    <path fill="#FF6665" d="M1.5,9.5 C1.224,9.5 1,9.276 1,9 C1,8.724 1.224,8.5 1.5,8.5 C1.776,8.5 2,8.724 2,9 C2,9.276 1.776,9.5 1.5,9.5"/>
    <path fill="#F2F2F2" d="M2.5,9.5 C2.224,9.5 2,9.276 2,9 C2,8.724 2.224,8.5 2.5,8.5 C2.776,8.5 3,8.724 3,9 C3,9.276 2.776,9.5 2.5,9.5"/>
    <path fill="#58ED9F" d="M3.5,9.5 C3.224,9.5 3,9.276 3,9 C3,8.724 3.224,8.5 3.5,8.5 C3.776,8.5 4,8.724 4,9 C4,9.276 3.776,9.5 3.5,9.5"/>
  </g>
</svg>
