<svg xmlns="http://www.w3.org/2000/svg" width="24" height="24" viewBox="0 0 24 24">
  <g fill="none" fill-rule="evenodd">
    <polygon fill="#F2F2F2" points="0 0 0 19 5 24 19 24 19 5 19 0"/>
    <polygon fill="#CCCCCC" points="0 19 5 24 5 19"/>
    <polygon fill="#CCCCCC" points="3 10 16.001 10 16.001 9 3 9"/>
    <polygon fill="#CCCCCC" points="3 8 16.067 8 16.067 7 3 7"/>
    <polygon fill="#CCCCCC" points="7 6 16 6 16 5 7 5"/>
    <polygon fill="#CCCCCC" points="7 4 16 4 16 3 7 3"/>
    <path fill="#292929" d="M4.6309,3.8369 L4.3149,4.9059 L4.9629,4.9059 L4.6499,3.8369 L4.6309,3.8369 Z M6.3109,5.9999 L5.2909,5.9999 L5.1629,5.5759 L4.1129,5.5759 L3.9849,5.9999 L2.9999,5.9999 L4.0959,2.9999 L5.2169,2.9999 L6.3109,5.9999 Z"/>
    <polygon fill="#FF6665" points="14 14 11.999 12 9.999 14 9 15 7 17 3.999 14 0 18 0 18.999 .999 18.999 3.999 16 7 18.999 9.999 16 11.999 14 14 16 18.999 11 18 9.999"/>
    <polygon fill="#757575" points="22 20 20 22 17.5 19.5 19.5 17.5"/>
    <polygon fill="#292929" points="19.5 22.5 20.999 24 24 21.001 22.5 19.5"/>
    <polygon fill="#292929" points="20 17 17 20 15.5 18.5 18.5 15.5"/>
    <path fill="#757575" d="M13,6 C9.134,6 6,9.134 6,13 C6,16.866 9.134,20 13,20 C16.866,20 20,16.866 20,13 C20,9.134 16.866,6 13,6 M13,9 C15.205,9 17,10.794 17,13 C17,15.206 15.205,17 13,17 C10.795,17 9,15.206 9,13 C9,10.794 10.795,9 13,9"/>
  </g>
</svg>
