<svg xmlns="http://www.w3.org/2000/svg" width="24" height="24" viewBox="0 0 24 24">
  <g fill="none" fill-rule="evenodd">
    <polygon fill="#CCCCCC" points="13 13 23 13 23 6 13 6"/>
    <polygon fill="#F2F2F2" points="13 6 18 11 23 6"/>
    <polygon fill="#292929" points="18 21 24 21 24 15 18 15"/>
    <path fill="#F2F2F2" d="M23,18 L23,17 L22,17 C21.447,17 21,17.448 21,18 L21,19 L20,19 L20,20 L21,20 L21,21 L22,21 L22,20 L23,20 L23,19 L22,19 L22,18 L23,18 Z"/>
    <polygon fill="#F2F2F2" points="2 11 11 11 11 0 2 0"/>
    <polygon fill="#CCCCCC" points="3 9 10 9 10 8 3 8"/>
    <polygon fill="#CCCCCC" points="3 7 10 7 10 6 3 6"/>
    <polygon fill="#CCCCCC" points="3 5 7 5 7 4 3 4"/>
    <polygon fill="#CCCCCC" points="3 3 7 3 7 2 3 2"/>
    <polygon fill="#CCCCCC" points="8 5 10 5 10 2 8 2"/>
    <polygon fill="#F2F2F2" points="0 24 16 24 16 22 0 22"/>
    <polygon fill="#292929" points="0 15 16 15 16 12 0 12"/>
    <polygon fill="#58ED9F" points="0 22 16 22 16 15 0 15"/>
    <polygon fill="#F2F2F2" points="4 20 12 20 12 19 4 19"/>
    <polygon fill="#F2F2F2" points="4 18 12 18 12 17 4 17"/>
    <path fill="#FF6665" d="M2,13.5 C2,13.776 1.776,14 1.5,14 C1.224,14 1,13.776 1,13.5 C1,13.224 1.224,13 1.5,13 C1.776,13 2,13.224 2,13.5"/>
    <path fill="#58ED9F" d="M6,13.5 C6,13.776 5.776,14 5.5,14 C5.224,14 5,13.776 5,13.5 C5,13.224 5.224,13 5.5,13 C5.776,13 6,13.224 6,13.5"/>
    <path fill="#F2F2F2" d="M4,13.5 C4,13.776 3.776,14 3.5,14 C3.224,14 3,13.776 3,13.5 C3,13.224 3.224,13 3.5,13 C3.776,13 4,13.224 4,13.5"/>
  </g>
</svg>
