<svg xmlns="http://www.w3.org/2000/svg" width="24" height="24" viewBox="0 0 24 24">
  <g fill="none" fill-rule="evenodd">
    <polygon fill="#757575" points="14 24 20.999 24 20.999 23 14 23"/>
    <polygon fill="#757575" points="11 22 24 22 24 13 11 13"/>
    <polygon fill="#FFFFFF" points="12 21 23 21 23 14 12 14"/>
    <path fill="#292929" d="M19,22.5 C19,22.224 19.224,22 19.5,22 L15.5,22 C15.776,22 16,22.224 16,22.5 C16,22.776 15.776,23 15.5,23 L19.5,23 C19.224,23 19,22.776 19,22.5"/>
    <polygon fill="#F2F2F2" points="23 14 16 21 23 21"/>
    <polygon fill="#292929" points="19 18 21 18 21 17 19 17"/>
    <polygon fill="#1A1A1A" points="21 17 20 17 19 18 21 18"/>
    <polygon fill="#58ED9F" points="14 18 19 18 19 17 14 17"/>
    <polygon fill="#58ED9F" points="3 20 3 7 2 7 2 20 2 21 3 21 11 21 11 20"/>
    <polygon fill="#292929" points="8 15 9 15 9 12 8 12"/>
    <polygon fill="#58ED9F" points="21 13 22 13 22 7 21 7"/>
    <polygon fill="#58ED9F" points="15 13 16 13 16 10 15 10"/>
    <polygon fill="#58ED9F" points="9 16 9 15 8 15 8 16 8 17 11 17 11 16"/>
    <path fill="#292929" d="M11,11 L6,11 L6,9.998 C6,9.447 6.447,9 6.998,9 L9.996,9 C10.551,9 11,9.449 11,10.004 L11,11 Z"/>
    <path fill="#58ED9F" d="M5 6L0 6 0 4.998C0 4.447.447 4 .998 4L3.996 4C4.551 4 5 4.449 5 5.004L5 6zM18 9L13 9 13 7.998C13 7.447 13.447 7 13.998 7L16.996 7C17.551 7 18 7.449 18 8.004L18 9zM24 6L19 6 19 4.998C19 4.447 19.447 4 19.998 4L22.996 4C23.551 4 24 4.449 24 5.004L24 6z"/>
    <path fill="#292929" d="M10,6.5 C10,7.329 9.328,8 8.5,8 C7.672,8 7,7.329 7,6.5 C7,5.671 7.672,5 8.5,5 C9.328,5 10,5.671 10,6.5"/>
    <path fill="#58ED9F" d="M17 4.5C17 5.329 16.328 6 15.5 6 14.672 6 14 5.329 14 4.5 14 3.671 14.672 3 15.5 3 16.328 3 17 3.671 17 4.5M23 1.5C23 2.329 22.328 3 21.5 3 20.672 3 20 2.329 20 1.5 20 .671 20.672 0 21.5 0 22.328 0 23 .671 23 1.5M4 1.5C4 2.329 3.328 3 2.5 3 1.672 3 1 2.329 1 1.5 1 .671 1.672 0 2.5 0 3.328 0 4 .671 4 1.5"/>
  </g>
</svg>
