<svg xmlns="http://www.w3.org/2000/svg" width="16" height="16" viewBox="0 0 16 16">
  <g fill="none" fill-rule="evenodd">
    <polygon fill="#292929" points="0 6 16 6 16 0 0 0"/>
    <polygon fill="#F2F2F2" points="1 5 15 5 15 1 1 1"/>
    <polygon fill="#292929" points="2 4 3 4 3 1.999 2 1.999"/>
    <rect width="11" height="3" x="2" y="13" fill="#CCCCCC"/>
    <rect width="9" height="2" x="3" y="14" fill="#F2F2F2"/>
    <rect width="1" height="1" x="4" y="15" fill="#58ED9F"/>
    <rect width="5" height="1" x="6" y="15" fill="#CCCCCC"/>
    <rect width="11" height="5" y="7" fill="#CCCCCC"/>
    <rect width="9" height="3" x="1" y="8" fill="#F2F2F2"/>
    <rect width="1" height="1" x="2" y="9" fill="#FF6665"/>
    <rect width="5" height="1" x="4" y="9" fill="#CCCCCC"/>
    <path fill="#58ED9F" d="M13,7 L13,8 L10.9864502,6.5 L13,5 L13,6 L15,6 L16,6 L16,13 L16,14 L14,14 L14,13 L15,13 L15,7 L13,7 Z"/>
  </g>
</svg>
