<?xml version="1.0" encoding="UTF-8"?>
<svg viewBox="0 0 20 20" xmlns="http://www.w3.org/2000/svg">
<g fill="svg-color" transform="translate(-6 -6)" fill="none" fill-rule="evenodd">
<rect x=".5" y=".5" width="31" height="31"/>
<path transform="translate(6 6)" d="m0 10c0-1.8133 0.44668-3.4867 1.34-5.02 0.89334-1.5333 2.1067-2.7467 3.64-3.64 1.5333-0.89334 3.2067-1.34 5.02-1.34 1.8133 0 3.4867 0.44666 5.02 1.34 1.5333 0.89334 2.7467 2.1067 3.64 3.64 0.89334 1.5333 1.34 3.2067 1.34 5.02s-0.44666 3.4867-1.34 5.02c-0.89332 1.5333-2.1067 2.7467-3.64 3.64-1.5333 0.89334-3.2067 1.34-5.02 1.34-1.8133 0-3.4867-0.44666-5.02-1.34-1.5333-0.89334-2.7467-2.1067-3.64-3.64-0.89332-1.5333-1.34-3.2067-1.34-5.02zm1.66 0c0 2.08 0.7 3.9133 2.1 5.5 0.64-1.2533 1.6533-2.4467 3.04-3.58 1.3867-1.1333 2.74-1.8467 4.06-2.14-0.2-0.46666-0.39332-0.88666-0.58-1.26-2.2933 0.73334-4.7733 1.1-7.44 1.1-0.52 0-0.90666-0.00666-1.16-0.02 0 0.05334-0.00332 0.12-0.01 0.2-0.00666 0.08-0.01 0.14666-0.01 0.2zm0.26-2.06c0.29334 0.02666 0.72668 0.04 1.3 0.04 2.2267 0 4.34-0.3 6.34-0.9-1.0133-1.8-2.1267-3.3-3.34-4.5-1.0533 0.53334-1.9567 1.2733-2.71 2.22-0.75332 0.94666-1.2833 1.9933-1.59 3.14zm2.98 8.64c1.5067 1.1733 3.2067 1.76 5.1 1.76 0.98668 0 1.9667-0.18666 2.94-0.56-0.26666-2.28-0.78666-4.4867-1.56-6.62-1.2267 0.26666-2.4633 0.94-3.71 2.02-1.2467 1.08-2.17 2.2133-2.77 3.4zm3.06-14.64c1.1733 1.2133 2.26 2.7267 3.26 4.54 1.8133-0.76 3.18-1.7267 4.1-2.9-1.5467-1.28-3.32-1.92-5.32-1.92-0.68 0-1.36 0.09334-2.04 0.28zm3.98 5.96c0.2 0.42666 0.42668 0.96666 0.68 1.62 0.98668-0.09334 2.06-0.14 3.22-0.14 0.82668 0 1.6467 0.02 2.46 0.06-0.10666-1.8133-0.76-3.4267-1.96-4.84-0.86666 1.2933-2.3333 2.3933-4.4 3.3zm1.18 3.02c0.68 1.9733 1.14 4 1.38 6.08 1.0533-0.68 1.9133-1.5533 2.58-2.62 0.66668-1.0667 1.0667-2.22 1.2-3.46-0.97332-0.06666-1.86-0.1-2.66-0.1-0.73332 0-1.5667 0.03334-2.5 0.1z" fill="#fff" fill-rule="nonzero"/>
</g>
</svg>
