<svg id="b1243848-9608-4570-9c33-6da14f292b88" data-name="sRGB_sv" xmlns="http://www.w3.org/2000/svg" viewBox="0 0 694.15 169.91"><title>yrgo-black</title><path d="M610.36,169c-46.18,0-83.77-38-83.77-84.71A85.24,85.24,0,0,1,539,39.92a10.08,10.08,0,1,1,17.22,10.47,65.09,65.09,0,0,0-9.45,33.88c0,35.59,28.53,64.56,63.62,64.56S674,119.87,674,84.27s-28.56-64.58-63.64-64.58a62.2,62.2,0,0,0-29.06,7.12A10.08,10.08,0,0,1,572,8.94a83.44,83.44,0,0,1,38.38-9.4c46.21,0,83.8,38,83.8,84.73S656.56,169,610.36,169" transform="translate(0 0.46)"/><path d="M273.62,4.42H201.83a10.07,10.07,0,0,0-9.29,6.17,10.06,10.06,0,0,0-.86,4.06V154a10.07,10.07,0,1,0,20.15,0V24.57h61.79a30.65,30.65,0,0,1,0,61.29H238.34a10.08,10.08,0,1,0,0,20.15h35.28a50.8,50.8,0,0,0,0-101.6" transform="translate(0 0.46)"/><path d="M314.47,164.37a10,10,0,0,1-7.12-3L277,131a10.08,10.08,0,0,1,14.26-14.24l30.35,30.37a10.08,10.08,0,0,1-7.13,17.2" transform="translate(0 0.46)"/><path d="M485.51,83.37H444.7a10.08,10.08,0,1,0,0,20.15h30.73v50.91a10.08,10.08,0,1,0,20.15,0v-61a10.08,10.08,0,0,0-10.08-10.08" transform="translate(0 0.46)"/><path d="M435.66,169.45c-46.21,0-83.79-38-83.79-84.73S389.46,0,435.66,0a82.47,82.47,0,0,1,50.06,16.79,10.08,10.08,0,1,1-12.14,16.08,62.5,62.5,0,0,0-37.92-12.73c-35.09,0-63.64,29-63.64,64.56s28.55,64.59,63.64,64.59a63.61,63.61,0,0,0,13.28-1.41,10.07,10.07,0,1,1,4.21,19.7,83.47,83.47,0,0,1-17.49,1.86" transform="translate(0 0.46)"/><path d="M81.75,164.07A10.07,10.07,0,0,1,71.68,154V93.82a10.08,10.08,0,0,1,20.15,0V154a10.08,10.08,0,0,1-10.08,10.08" transform="translate(0 0.46)"/><path d="M102.8,67.69a10.07,10.07,0,0,1-6.45-17.82L148,6.9a10.07,10.07,0,0,1,12.89,15.48l-51.64,43a10.06,10.06,0,0,1-6.44,2.33" transform="translate(0 0.46)"/><path d="M61.75,67.69a10,10,0,0,1-6.44-2.33l-51.67-43A10.07,10.07,0,1,1,16.52,6.9l51.68,43a10.07,10.07,0,0,1-6.45,17.82" transform="translate(0 0.46)"/></svg>